<?xml version="1.0" encoding="utf-8"?>
<!-- Generator: Adobe Illustrator 22.1.0, SVG Export Plug-In . SVG Version: 6.00 Build 0)  -->
<svg version="1.1" xmlns="http://www.w3.org/2000/svg" xmlns:xlink="http://www.w3.org/1999/xlink" x="0px" y="0px"
	 viewBox="0 0 360 360" style="enable-background:new 0 0 360 360;" xml:space="preserve">
<style type="text/css">
	.st0{fill:#FFFFFF;stroke:#000000;stroke-width:0.25;stroke-miterlimit:10;}
	.st1{fill:#FFFFFF;stroke:#000000;stroke-width:0.25;}
	.st2{fill:none;stroke:#231815;stroke-width:0.25;stroke-miterlimit:10;}
	.st3{fill:none;stroke:#231815;stroke-width:0.25;stroke-miterlimit:2.61;}
	.st4{fill:#231815;}
</style>
<g id="大陆">
	<polygon class="st0" points="331.7,105.1 330.5,105 328.8,105 326.4,104.2 325.6,102.7 324.7,103.8 323.6,103 321,105.9 
		320.5,106.8 319.4,107 317.7,105.1 316.2,104.5 314.6,101.2 313.4,102.1 313.7,105 312.9,105.5 310.8,103.2 310,102.1 308.4,102.1 
		307.4,99.6 305.2,98.4 302.1,99.6 301,99.4 299.2,97.6 296.7,99.1 295.4,99.1 293.7,99.8 291.3,98 289.6,94.9 285.7,95.6 
		284.2,97.4 284.1,99.4 279.8,98.2 279.2,99.6 279.5,100.6 281.8,102.2 281.8,104.5 282.1,106.8 283.4,108.8 283.6,110.5 
		284.6,111.2 287.9,108.1 291.3,112.4 291.3,114.8 293.1,115.8 293.2,115 296,115.8 298,118.1 299,117.1 299.2,116.5 303.9,122.8 
		304.2,125.3 306.9,128.3 307.2,131 309.5,129.6 311.6,123.5 312.6,123.2 314.9,124.5 318.7,124 320,122.8 318.2,120.1 318.7,119.4 
		322.1,118.2 323.6,115.4 325.4,114.6 325.6,111.9 326,110.1 327.1,109.7 328,110.8 329,111.6 331.4,108.3 332.1,105.8 	"/>
	<polygon class="st1" points="258.7,274.9 260.7,275.3 262.6,273.8 263.6,276.5 261.5,277.5 258.8,277.3 258.4,275.3 	"/>
	<polygon class="st0" points="309,253.2 307.2,264.1 306.2,267.6 306.2,270.6 305.4,271.4 303.4,268.5 301.3,266.8 299.5,261.9 
		299.7,257.5 302.8,249.4 306.4,246.3 308.7,247.4 	"/>
	<polygon class="st0" points="243.6,259.7 244.9,258.8 244.9,256.8 245.6,256.2 247.2,256.3 250,257.6 250.5,256.6 249.8,255.5 
		250,254.7 251.8,253.2 254.9,254 256.7,252.9 258,254.2 261.1,253.4 261.8,254.5 260.8,255.8 259.2,258.3 259.2,258.9 260.1,259.6 
		266.7,257 269,258.3 269.7,257.6 269,256.2 269.2,255.2 273.4,256.2 274.3,256.8 275.4,256.6 277.2,258.9 279.2,263.2 277.9,264.1 
		276.7,266.3 275.7,266.6 274.7,268.6 271.5,270.2 270.2,269.6 269.4,270.9 269.4,271.4 268.3,271.4 266.5,271.4 264.9,272.6 
		263.7,271.9 262.3,272.8 258.7,274.3 255.8,272 255.6,273.9 256.6,276.6 253.9,277.8 252.5,279.7 249.7,280.4 248.2,281 245.2,281 
		243.2,283 238,284.9 235.4,286.6 234.1,287.9 236.6,291.9 234.9,293.3 232.9,293.2 230.6,289 231.2,285.9 231.2,284.5 232.8,281.9 
		234.9,281.4 234.7,279.9 236.9,278.9 237.2,276.5 241,273.5 240.8,269.6 243.7,265.8 243.6,264.4 244.6,263 	"/>
	<polygon class="st0" points="194.4,262.7 196.5,262.9 198.9,260.8 199.8,261.4 204.2,263.2 205.1,262.7 205.2,261.2 206,260.4 
		212.3,256.3 213.4,257.6 217.2,258.8 219.3,256 220.3,256.6 221.8,256.6 221.8,255.8 223.8,255.1 223.8,254.5 224.6,253.7 
		225.1,253.8 227.1,251.9 228.7,252.3 230.3,250.1 231.2,251.9 231.6,251.7 234.2,249.3 234.9,249.4 236.1,248.8 238.2,249.4 
		238.2,251.7 239.8,252.1 239.4,254.3 237.9,256.8 237.2,258.9 237.9,258.9 239.6,257.2 241.1,260.5 242.3,259.7 243.6,259.7 
		244.6,263 243.6,264.4 243.7,265.8 240.8,269.6 241,273.5 237.2,276.5 236.9,278.9 234.7,279.9 234.9,281.4 232.8,281.9 
		231.2,284.5 226.9,285.1 224.6,283.5 222.3,282.5 220,284.9 217.6,285 215.2,285.1 210,282.2 209,279.6 210.3,276.9 208.8,275.8 
		206.8,275.8 206.4,275.3 204.2,275.8 202.1,274.3 202.9,272 204.6,271.9 205.2,271.4 205.8,269.3 205.1,268.1 199.5,267.1 
		198.5,265.5 196.9,265.5 195.4,265.5 194.3,263.7 	"/>
	<polygon class="st0" points="240.4,296.9 237.5,302.1 237.5,304.3 231.6,309.1 225.6,307 224.4,302.7 224.7,300.7 228,297.4 
		229.2,296.5 234.6,295.5 237,295.3 237.9,294.4 239.6,294.8 	"/>
	<polygon class="st0" points="199,240.6 198.5,239 197,238.4 194.6,239.9 192.9,239.1 192.8,237 191.9,235.9 191.9,234.9 
		189.6,234.3 189,235 189.4,236.6 187.5,237.4 187,238.6 187.5,240 183.4,244.8 184.1,250.4 182.1,252.1 181.2,251 177.2,253.4 
		175.7,252.5 170,241.5 167.7,239.9 165.9,239.4 165,237.9 166.1,236.3 164.4,235 162.4,236.6 160.5,237 159.2,231 158.8,229.6 
		156.8,232.1 156,232.5 156.2,236.3 155.8,237.1 154.7,237.1 153.9,236.3 152.9,237.4 153.9,241.7 155.1,241.7 156,242.4 156.4,245 
		155.9,254 149.7,259.6 149.3,261.7 148.2,262.7 148,263.8 149,266.5 148.2,268.5 148.6,268.7 151.8,267.9 156.2,267.6 155.8,269.4 
		156.6,271.1 156.8,273.5 157.4,274.3 160,274.5 161.1,275.3 159.9,276.9 159.6,278.9 158.7,281.2 159.3,282.1 160.9,282.2 
		163.7,283.2 163.4,284.2 165.2,287 167.8,287 171.1,285.1 172.1,285.7 172.1,286.8 172.6,288.4 173.4,289.2 175.2,289 175.9,289.4 
		176.5,288.8 176.5,286.1 175.4,281.4 176.2,279.9 179,279.9 179.7,279.9 181.2,278.1 185.1,279.4 186.7,278 187.5,278.8 
		189.1,277.8 190.6,279.2 191.3,279.2 191.8,278.4 193.1,277.1 193.7,277.6 195.6,277.3 197.4,275.8 198.9,273.6 201,273.2 
		202.1,274.3 202.9,272 204.6,271.9 205.2,271.4 205.8,269.3 205.1,268.1 199.5,267.1 198.5,265.5 196.9,265.5 195.4,265.5 
		194.3,263.7 194.4,262.7 195.1,258.8 192.9,256.6 194.6,249.8 193.4,248.8 189.8,249.9 189,248.4 189,246.8 188.2,246 190,243.5 
		191.9,244.1 192.8,243.3 196.4,243.9 198,243.3 	"/>
	<polygon class="st0" points="269.2,255.2 270.2,249.3 271.1,247.8 271.6,246.1 272.8,243.7 272.1,242.7 272.3,240.6 275.1,237.4 
		274.9,235.3 276.7,232.2 278.5,232.7 282.1,230.1 282.8,228.8 284.9,229.1 286.1,232.1 287,234 289.4,234 290.8,232.2 292.9,234.3 
		296.6,233 294.3,238.6 292.9,237.9 292,238.4 291.8,239 293.1,240.4 292.8,245.5 293.1,247.1 292.8,247.6 291.3,247.3 290.3,248.2 
		291,249.6 289.1,251.4 289.5,252.1 287.7,253 288,254.3 287.4,255 284.9,255 283.6,256.2 283.4,256.6 284.6,257.5 283.3,259.4 
		281.6,261.6 281,261.4 279.2,263.2 277.2,258.9 275.4,256.6 274.3,256.8 273.4,256.2 	"/>
	<polygon class="st0" points="253.3,226.8 255.2,230.6 255.4,232.5 254.4,234.5 252.9,235.7 252.6,239.2 253.1,239.8 253.9,239.4 
		254.4,239.8 254.4,242 255.4,244.7 256.6,245.2 256.7,249.1 256,251.7 256.7,252.9 258,254.2 261.1,253.4 261.8,254.5 260.8,255.8 
		259.2,258.3 259.2,258.9 260.1,259.6 266.7,257 269,258.3 269.7,257.6 269,256.2 269.2,255.2 270.2,249.3 271.1,247.8 271.6,246.1 
		272.8,243.7 272.1,242.7 272.3,240.6 275.1,237.4 274.9,235.3 276.7,232.2 278.5,232.7 282.1,230.1 282.8,228.8 280.5,224.5 
		279,222.4 280.1,221.3 278.7,220.1 275.2,220.1 273.8,218.5 271,221.2 270,220.7 271.1,218.6 271,217.9 270,217.6 266.7,219.4 
		264.1,220.2 262,220.1 257.4,224.3 254.9,225.2 	"/>
	<polygon class="st0" points="253.3,226.8 251.8,226.5 251.1,225.5 251.1,223.2 250.3,222 248.6,223.7 247.8,224.8 246.7,224.8 
		246.4,223 244.9,223.5 242.9,224.8 241.6,224 239,222.2 231.4,221.7 230.6,222.6 232.1,224.3 230.3,225.5 227.5,224.3 224.6,226.8 
		223.6,229.1 223.8,234.5 225.2,240.2 221.9,243.9 222.3,244.3 225.2,243.5 226.2,244.8 225.4,248.9 227.1,251.9 228.7,252.3 
		230.3,250.1 231.2,251.9 231.6,251.7 234.2,249.3 234.9,249.4 236.1,248.8 238.2,249.4 238.2,251.7 239.8,252.1 239.4,254.3 
		237.9,256.8 237.2,258.9 237.9,258.9 239.6,257.2 241.1,260.5 242.3,259.7 243.6,259.7 244.9,258.8 244.9,256.8 245.6,256.2 
		247.2,256.3 250,257.6 250.5,256.6 249.8,255.5 250,254.7 251.8,253.2 254.9,254 256.7,252.9 256,251.7 256.7,249.1 256.6,245.2 
		255.4,244.7 254.4,242 254.4,239.8 253.9,239.4 253.1,239.8 252.6,239.2 252.9,235.7 254.4,234.5 255.4,232.5 255.2,230.6 	"/>
	<polygon class="st0" points="199,240.6 198,243.3 196.4,243.9 192.8,243.3 191.9,244.1 190,243.5 188.2,246 189,246.8 189,248.4 
		189.8,249.9 193.4,248.8 194.6,249.8 192.9,256.6 195.1,258.8 194.4,262.7 196.5,262.9 198.9,260.8 199.8,261.4 204.2,263.2 
		205.1,262.7 205.2,261.2 206,260.4 212.3,256.3 213.4,257.6 217.2,258.8 219.3,256 220.3,256.6 221.8,256.6 221.8,255.8 
		223.8,255.1 223.8,254.5 224.6,253.7 225.1,253.8 227.1,251.9 225.4,248.9 226.2,244.8 225.2,243.5 222.3,244.3 221.9,243.9 
		225.2,240.2 223.8,234.5 221.6,236.2 219.7,234.2 217.8,231.7 217.7,230.2 216.4,229.9 214.9,230.4 212.4,229.2 211.3,232.1 
		209.2,232.2 207.7,234.5 206.7,234 205.2,234.5 202.9,233.2 201.1,235.3 201.1,236.3 204.7,238.3 205.5,239.8 202.9,240.7 	"/>
	<polygon class="st0" points="296.6,233 292.9,234.3 290.8,232.2 289.4,234 287,234 286.1,232.1 284.9,229.1 282.8,228.8 
		280.5,224.5 279,222.4 280.1,221.3 280.5,220.9 282.9,217.4 282.8,214.6 283.6,213.5 285.5,213.2 286.1,212.4 285.4,211.1 
		286.4,209.7 286.4,207.1 287.7,206.4 290,207.8 292.8,208.3 294.6,206.1 296.9,208 295.9,208.8 294.8,210.5 292.9,211.1 
		292.3,211.6 294.1,212.5 297.4,211.1 302.8,213.3 303.3,217.9 301.1,217.9 301,219.3 302.1,221.2 301.1,222.4 302.3,224.2 
		300.5,226.3 299.7,225.3 297,232.1 	"/>
	<polygon class="st0" points="262.1,185.5 263.3,185.1 266.9,186.6 268.5,188.3 271.5,189.1 272.6,190 274.3,189.8 274.6,190.4 
		274.1,193.9 275.7,194.8 276.4,196.1 278.8,196.6 279.8,195 281.3,195.2 282.2,196.5 282.1,197.6 279.2,198 279.2,199.3 
		279.2,200.2 278,201.5 278.8,203 281.3,204.7 281.4,206.6 286.4,207.1 286.4,209.7 285.4,211.1 286.1,212.4 285.5,213.2 
		283.6,213.5 282.8,214.6 282.9,217.4 280.5,220.9 280.1,221.3 278.7,220.1 275.2,220.1 273.8,218.5 271,221.2 270,220.7 
		271.1,218.6 271,217.9 270,217.6 266.7,219.4 263.6,213.5 264.6,211.7 264.2,211.1 262.6,210.5 259.9,208.9 260.9,206.6 
		262.6,205.8 262.9,204 262.3,200.7 262,200.4 260.3,202.1 257.9,200.1 256,197.8 257.9,196.5 258.4,194.1 259.5,193.3 259.3,190.2 
		260.1,189.6 261.6,190.6 262.6,191.9 264.6,190.6 265.2,189.8 264.9,188.3 262.6,187 	"/>
	<polygon class="st0" points="296.9,208 294.6,206.1 295.7,204.8 296.5,202.3 299,203.4 300.1,205 299.3,206.2 	"/>
	<polygon class="st0" points="296.5,202.3 295.7,204.8 294.6,206.1 292.8,208.3 290,207.8 287.7,206.4 286.4,207.1 281.4,206.6 
		281.3,204.7 278.8,203 278,201.5 279.2,200.2 279.2,199.3 279.2,198 282.1,197.6 282.2,196.5 281.3,195.2 279.8,195 278.8,196.6 
		276.4,196.1 275.7,194.8 274.1,193.9 274.6,190.4 274.3,189.8 272.6,190 271.5,189.1 268.5,188.3 266.9,186.6 263.3,185.1 
		263.6,183.5 265,182.9 267.7,185.1 268.5,185.1 271,184.9 272.4,183.7 274.4,185.3 275.2,183.8 275.4,183 277.1,182.1 277.5,180.1 
		279.2,179.7 283.3,182.5 286.2,183.7 291.8,193.1 291.6,194 295.4,195.8 296.4,197.4 298.2,198.2 299,199.9 297.8,200.4 
		295.9,199.8 293.2,199.8 290.8,198.9 289.8,199.8 292.1,200.4 294.3,201.4 	"/>
	<polygon class="st0" points="223.6,229.1 224.6,226.8 227.5,224.3 230.3,225.5 232.1,224.3 230.6,222.6 231.4,221.7 239,222.2 
		241.6,224 242.9,224.8 244.9,223.5 246.4,223 246.7,224.8 247.8,224.8 248.6,223.7 250.3,222 251.1,223.2 251.1,225.5 251.8,226.5 
		253.3,226.8 254.9,225.2 257.4,224.3 262,220.1 264.1,220.2 266.7,219.4 263.6,213.5 264.6,211.7 264.2,211.1 262.6,210.5 
		259.9,208.9 258.5,208.1 256.7,208.9 254.7,207.2 252.1,207.2 250.1,206.2 249.7,204.5 248.6,203.5 247.2,204.3 245.9,203.7 
		241.8,204.3 237.4,203.4 232,198.6 230.5,199.8 229.8,199.3 228.7,199.3 223.8,199.3 223.1,199.9 224.6,201.4 226,201.7 
		227.3,202.2 226.7,203.2 224.3,204.3 223.8,206.3 224.3,207 224.6,209.4 226,209.6 227.5,211.6 228.1,215.3 227.7,216.6 
		226.7,216.3 223.9,218.5 219.1,219.3 217.8,220.6 218.9,221.9 219,224.7 220.3,225 	"/>
	<polygon class="st0" points="179.3,201.4 180.3,199.1 179.2,197.8 179,195.8 183.1,194 184.1,194 184.7,195.5 184.9,197.4 
		186.9,198.8 189.5,201.4 191,200.4 191.9,201.4 192.3,204 193.9,205.1 198.2,205.5 198.9,204.7 198.6,203.5 201.1,202.9 
		202.5,203.2 202.6,204.7 203.8,204.8 208,204 208.8,204.3 209,205.5 210.8,206 214.6,207.8 216.7,207 221.3,208.6 222.3,209.9 
		224.6,209.4 226,209.6 227.5,211.6 228.1,215.3 227.7,216.6 226.7,216.3 223.9,218.5 219.1,219.3 217.8,220.6 218.9,221.9 
		219,224.7 220.3,225 223.6,229.1 223.8,234.5 221.6,236.2 219.7,234.2 217.8,231.7 217.7,230.2 216.4,229.9 214.9,230.4 
		212.4,229.2 211.3,232.1 209.2,232.2 207.7,234.5 206.7,234 205.2,234.5 202.9,233.2 201.1,235.3 201.1,236.3 204.7,238.3 
		205.5,239.8 202.9,240.7 199,240.6 198.5,239 197,238.4 194.6,239.9 192.9,239.1 192.8,237 191.9,235.9 191.9,234.9 189.6,234.3 
		189,235 189.4,236.6 187.5,237.4 187,238.6 187.5,240 183.4,244.8 184.1,250.4 182.1,252.1 181.2,251 177.2,253.4 175.7,252.5 
		170,241.5 167.7,239.9 165.9,239.4 165,237.9 166.1,236.3 164.4,235 162.4,236.6 160.5,237 159.2,231 158.8,229.6 158.5,220.1 
		156.7,215.3 158,214.4 154.2,207.5 149.7,203.8 150.3,201.7 150.8,201 157.5,200.1 162,201.4 164.6,200.6 165.6,202.2 168.9,205.5 
		171.5,205 171.5,203 172.1,201.7 174.7,200.7 175.7,202.3 177.2,201.2 179.3,201.5 	"/>
	<polygon class="st0" points="204.7,230.8 202.9,230 202,230.4 201.3,227.8 200.1,227.8 198.9,225.7 201.3,223.8 201.6,223 
		200.5,221.5 202.1,219.6 204.6,220.9 206.3,220.3 207.6,222.3 209.5,222 211.9,218.6 211.7,217.2 213.2,216.2 214.3,216.8 
		218.1,210.1 216.6,208.4 216.7,207 221.3,208.6 222.3,209.9 224.6,209.4 226,209.6 227.5,211.6 228.1,215.3 227.7,216.6 
		226.7,216.3 223.9,218.5 219.1,219.3 217.8,220.6 218.9,221.9 219,224.7 220.3,225 223.6,229.1 223.8,234.5 221.6,236.2 
		219.7,234.2 217.8,231.7 217.7,230.2 216.4,229.9 214.9,230.4 212.4,229.2 211.3,232.1 209.2,232.2 207.7,234.5 206.7,234 	"/>
	<polygon class="st0" points="106.6,235 110.5,235.5 111.8,237.3 112.4,237.6 118.3,236.5 118.7,235.5 119.8,234.9 122.6,232.5 
		125.1,232.2 127.3,230.8 131.8,228.3 132.2,229.1 135.5,230.2 140.3,227.8 141.8,228.8 140.4,230.8 141,231.2 142.9,231.2 
		143.1,232.1 141.5,235 141.9,235.5 142.9,235.5 147.7,236.8 149.8,235 152.9,237.4 153.9,236.3 154.7,237.1 155.8,237.1 
		156.2,236.3 156,232.5 156.8,232.1 158.8,229.6 158.5,220.1 156.7,215.3 158,214.4 154.2,207.5 149.7,203.8 148.4,204.7 
		148.5,206.8 144.6,211.9 138,210.5 137.5,208.1 133.4,204.8 124.4,203.4 120.5,202.7 119,202.5 115.6,199.8 108.5,198.1 
		103.6,188.6 103.4,185.9 105.4,185 105.4,182.1 106.8,178.4 105.2,176.8 107.4,175 106,174.2 102.7,174.2 96.9,171.5 93.1,171.5 
		90.2,172.4 86.9,172.4 81.8,175.2 77.7,174.7 73.6,176.1 70.2,175 68,173.2 62.6,172.4 59,174.8 57,174 55.4,172.7 51.4,171.7 
		48.6,173.6 47.5,176.7 45.4,178 44.9,179.7 43.5,180.2 41.8,180.1 41.1,181.4 40.8,183.2 40.1,183.1 40,185 42,187 42.1,189.8 
		41.5,190.9 38.5,191.2 37,189.6 35.5,189.8 35.2,191.1 36.1,193.2 36.3,194.7 36.3,196.6 35.9,198 36.1,199.1 38,199.3 39,201 
		43.5,204.5 43.5,205.6 46.7,209.2 47.8,210.5 48.8,210.9 50.8,208.9 52.6,210.5 60.1,217 61.5,220.2 63.1,220.2 64.1,219.3 
		64.9,220.1 64.9,223 69.3,225.5 70.3,225.3 71,227.8 74.7,229.9 74.9,231.4 75.6,231.8 78.8,231.7 80.6,231.7 83.3,233.7 
		89.2,233.5 92.3,233.4 93.1,234.6 92.4,237.4 93.2,238.4 96.5,235.7 100.6,232.7 103.6,233.2 	"/>
	<polygon class="st0" points="107.4,175 110,176 114.4,174.5 113.7,173.6 112.6,173.6 112.1,172.4 112.4,171.2 114.6,170.2 
		116.1,167.8 111.5,164 111.3,160.1 113.4,158.4 128.5,155.5 129.5,154.7 131.8,155 139.4,156.8 141.6,158.1 144.9,160.1 147,159.9 
		150.3,157.9 154.6,158.6 157.4,157.1 163.1,160.8 166.2,159.6 167.8,163.5 171.8,166 174.7,168.6 176.9,167.8 180.9,173.2 
		181.8,176.7 183.3,178.8 182.8,182.9 179.5,185.5 180.1,187.1 178.8,188.4 177.2,189.9 177.2,192.7 175.7,193.9 173.9,193.3 
		172.4,191.9 171.6,193.5 172.6,195 175.2,195.3 177.7,197.8 179.2,197.8 180.3,199.1 179.3,201.4 179.3,201.5 177.2,201.2 
		175.7,202.3 174.7,200.7 172.1,201.7 171.5,203 171.5,205 168.9,205.5 165.6,202.2 164.6,200.6 162,201.4 157.5,200.1 150.8,201 
		150.3,201.7 149.7,203.8 148.4,204.7 148.5,206.8 144.6,211.9 138,210.5 137.5,208.1 133.4,204.8 124.4,203.4 120.5,202.7 
		119,202.5 115.6,199.8 108.5,198.1 103.6,188.6 103.4,185.9 105.4,185 105.4,182.1 106.8,178.4 105.2,176.8 	"/>
	<polygon class="st0" points="131.8,155 130.9,145.5 131.4,143.5 134.2,142.2 138.2,138.9 144.3,136.5 146.7,135.3 146.7,133 
		147.8,131.7 148.9,131.8 152.9,132.5 152.7,134.3 153.6,137.1 153.1,141.7 156.6,146.8 158.4,148 161.1,145.8 167,145.8 
		168.5,146.3 169.3,147.6 168.7,149.1 165.4,151.7 165.7,153 169.5,155.8 171,155.8 171.5,156.4 171.1,157.6 173.4,159.4 
		178.8,160.3 181.4,159.6 184.7,156.3 188.7,156.6 190.3,159.1 189.4,161.4 189.6,162.7 187.5,164 186.6,165.2 186.9,167.9 
		190.6,170.6 192.3,170.2 196.7,175.6 197.7,179.7 197.2,181.7 200.3,183.3 200.3,184.6 203.1,185.3 203.9,185.3 203.9,183 
		206,182.7 206.6,179.9 205.1,178.8 203.9,177.6 204.4,172.4 205.5,171.7 207.5,172.6 208.4,172.2 208.8,173.2 214.1,175.8 
		216.9,177.6 217.4,179.2 215.9,181.4 216.7,183.8 216.2,185 212.3,185.3 211.5,185.8 211.8,186.5 211.8,187.6 208.7,187.9 
		207.1,187.1 204.9,187.1 204.6,187.6 204.9,188.8 203.9,189.9 203.6,191.2 205.5,192.8 204.1,195.8 204.7,197.3 204.6,198 
		202.3,198 200.6,198.8 201.9,200.6 201.1,202.9 198.6,203.5 198.9,204.7 198.2,205.5 193.9,205.1 192.3,204 191.9,201.4 191,200.4 
		189.5,201.4 186.9,198.8 184.9,197.4 184.7,195.5 184.1,194 183.1,194 179,195.8 177.7,197.8 175.2,195.3 172.6,195 171.6,193.5 
		172.4,191.9 173.9,193.3 175.7,193.9 177.2,192.7 177.2,189.9 178.8,188.4 180.1,187.1 179.5,185.5 182.8,182.9 183.3,178.8 
		181.8,176.7 180.9,173.2 176.9,167.8 174.7,168.6 171.8,166 167.8,163.5 166.2,159.6 163.1,160.8 157.4,157.1 154.6,158.6 
		150.3,157.9 147,159.9 144.9,160.1 141.6,158.1 139.4,156.8 	"/>
	<polygon class="st0" points="107.3,80.1 108.7,80.1 107.9,82.7 109,84 109.2,85 111.8,87.6 112.4,89.6 115.9,89.8 117.4,91.1 
		118.2,91.1 120.2,95.3 122.1,100.4 121.1,103.5 121.3,104.7 119.5,107.8 120,110.3 126.4,113 133.3,114 140.4,118.9 142.8,119.8 
		142.9,121.1 144.4,124.2 145.9,128.3 147.8,131.7 146.7,133 146.7,135.3 144.3,136.5 138.2,138.9 134.2,142.2 131.4,143.5 
		130.9,145.5 131.8,155 129.5,154.7 128.5,155.5 113.4,158.4 111.3,160.1 111.5,164 116.1,167.8 114.6,170.2 112.4,171.2 
		112.1,172.4 112.6,173.6 113.7,173.6 114.4,174.5 110,176 107.4,175 106,174.2 102.7,174.2 96.9,171.5 93.1,171.5 90.2,172.4 
		86.9,172.4 81.8,175.2 77.7,174.7 73.6,176.1 70.2,175 68,173.2 62.6,172.4 59,174.8 57,174 55.4,172.7 51.4,171.7 50.8,171.1 
		49.2,170.9 46.7,167.1 44.3,166.5 38,168.5 35.4,167.8 30,163.8 28.5,163.7 27.3,161.1 28.1,158.4 27.9,157.1 25.9,155.8 
		25.2,154.5 21.1,152.2 21.1,151.5 23.1,150.7 24.3,151.4 25.4,150.2 25.1,146.3 25.4,143 22.8,140.4 21,140.9 20.3,138.9 21.3,137 
		20.8,135.1 22.5,133.5 23.2,132.9 23.2,131.4 25.7,130.2 28.1,129.7 30.3,128.9 32.1,129.4 33.4,128.9 33.9,129.2 34.1,130.9 
		35.2,131.4 38,131.2 41.1,127.8 47.5,129.1 50.8,126.8 60.3,124.7 60.9,123.4 61.8,119.8 64.4,117.6 65.2,117.6 65.2,116.6 
		65.4,107.4 65.9,105.6 63.3,104.7 63.1,104 65.9,103.2 73,102.6 74.1,104 76.5,104.5 77.2,104.7 78.2,103.4 76.8,102.1 82.1,91.4 
		82.9,90.9 87.7,93.2 89.8,93.2 90.8,94.5 95.4,93.1 96.5,85.5 98.5,84.2 100.8,84 102.5,82.1 103.1,80.1 104.4,79.4 	"/>
	<polygon class="st0" points="227.5,189.1 226.7,187.1 228.1,182.1 226,172.4 227.5,169.9 228.1,167.6 226.2,163.7 228,160.9 
		228.4,158.3 229.3,156.3 229.2,154 228.4,153.4 227.1,154.8 223.6,155 221.8,157.6 221.9,159.1 221.6,160.1 220.2,160.5 
		214.8,168.2 214.1,167.8 212.6,167.4 209.5,167.6 208.5,169.1 208.4,172.2 208.8,173.2 214.1,175.8 216.9,177.6 217.4,179.2 
		215.9,181.4 216.7,183.8 216.2,185 212.3,185.3 211.5,185.8 211.8,186.5 211.8,187.6 208.7,187.9 207.1,187.1 204.9,187.1 
		204.6,187.6 204.9,188.8 203.9,189.9 203.6,191.2 205.5,192.8 204.1,195.8 204.7,197.3 204.6,198 202.3,198 200.6,198.8 
		201.9,200.6 201.1,202.9 202.5,203.2 202.6,204.7 203.8,204.8 208,204 208.8,204.3 209,205.5 210.8,206 214.6,207.8 216.7,207 
		221.3,208.6 222.3,209.9 224.6,209.4 224.3,207 223.8,206.3 224.3,204.3 226.7,203.2 227.3,202.2 226,201.7 224.6,201.4 
		223.1,199.9 223.8,199.3 228.7,199.3 229.8,199.3 230.5,199.8 232,198.6 232,196.6 227.5,189.9 	"/>
	<polygon class="st0" points="232,198.6 237.4,203.4 241.8,204.3 245.9,203.7 247.2,204.3 248.6,203.5 249.7,204.5 250.1,206.2 
		252.1,207.2 254.7,207.2 256.7,208.9 258.5,208.1 259.9,208.9 260.9,206.6 262.6,205.8 262.9,204 262.3,200.7 262,200.4 
		260.3,202.1 257.9,200.1 256,197.8 257.9,196.5 258.4,194.1 259.5,193.3 259.3,190.2 260.1,189.6 261.6,190.6 262.6,191.9 
		264.6,190.6 265.2,189.8 264.9,188.3 262.6,187 262.1,185.5 258,185.9 255.4,183.7 254.2,183.3 254.2,181.8 260,175.5 257.9,176 
		256.6,176.9 256,176.1 256,175.2 255.1,174.8 252.5,175.8 245.9,175 245.6,180.4 242.4,182.9 238.2,183.7 232.2,187.8 227.5,189.1 
		227.5,189.9 232,196.6 	"/>
	<polygon class="st0" points="227.5,189.1 232.2,187.8 238.2,183.7 242.4,182.9 245.6,180.4 245.9,175 244.4,173 244.9,171.4 
		245.9,169.9 246.2,167.6 247.2,166 245.6,162.7 243.2,160.1 244.6,155.8 247.4,154 247.8,151.2 246.7,148.8 246.7,145.8 
		244.9,144.1 240.7,146.3 240,145.6 237.7,147.3 235.9,147.1 232.2,152.3 231.2,152.3 229.2,154 229.3,156.3 228.4,158.3 228,160.9 
		226.2,163.7 228.1,167.6 227.5,169.9 226,172.4 228.1,182.1 226.7,187.1 	"/>
	<polygon class="st0" points="263.3,185.1 263.6,183.5 265,182.9 267.7,185.1 268.5,185.1 271,184.9 272.4,183.7 274.4,185.3 
		275.2,183.8 275.4,183 277.1,182.1 277.5,180.1 279.2,179.7 283.8,172 282.9,170.7 283.8,169.9 284.7,170.2 286.2,169.4 287,167.6 
		290.8,164.2 293.7,163.2 295.1,161.9 294.8,159.1 292.8,158.9 288.3,159.4 285.3,157.9 283.4,158.3 278.8,164.2 277.5,165 
		274.6,163.7 274.4,162.2 273.8,159.6 272.1,158.6 269.5,159.2 267.8,158.1 265.4,161.2 262.8,161.9 259.2,165.2 255.2,172.4 
		256.2,174.3 256,175.2 256,176.1 256.6,176.9 257.9,176 260,175.5 254.2,181.8 254.2,183.3 255.4,183.7 258,185.9 262.1,185.5 	"/>
	<polygon class="st0" points="256,175.2 256.2,174.3 255.2,172.4 259.2,165.2 262.8,161.9 265.4,161.2 267.8,158.1 266.9,157.5 
		266,155.2 264.1,156 260.9,155.1 260.8,154.3 260.7,149.1 259,149.8 258,150.7 255.9,150.1 253.1,150.6 252.6,149.3 252.9,146.8 
		255.1,144.3 255.6,141.5 257.7,139.4 261.5,141.4 262.4,141.4 263.1,144.1 264.2,144.7 264.8,146.5 264.6,147.6 266.9,149.3 
		267.2,150.6 269.1,151.4 273.9,148.8 273.9,147.3 276.7,143.2 274.7,140.4 273.2,140.2 270.5,138.4 271.5,135.5 267.2,135.1 
		265.4,132.4 265.6,130.9 262,126.9 259.6,128.1 257.7,130.1 258.4,131.6 257.9,132.5 255.1,132.7 253.8,133.8 252.6,133.3 
		251.4,134.5 248.9,136.5 247.7,135.7 247.7,133 246.7,132.5 245.2,133.2 243.5,137 242.8,140.6 244.9,144.1 246.7,145.8 
		246.7,148.8 247.8,151.2 247.4,154 244.6,155.8 243.2,160.1 245.6,162.7 247.2,166 246.2,167.6 245.9,169.9 244.9,171.4 244.4,173 
		245.9,175 252.5,175.8 255.1,174.8 	"/>
	<polygon class="st0" points="266,155.2 264.1,156 260.9,155.1 260.8,154.3 260.7,149.1 262.8,148.1 262.4,147.1 262.9,145.1 
		263.1,144.1 264.2,144.7 264.8,146.5 264.6,147.6 266.9,149.3 267.2,150.6 265.9,151.5 265.4,153.7 	"/>
	<polygon class="st0" points="260.7,149.1 262.8,148.1 262.4,147.1 262.9,145.1 263.1,144.1 262.4,141.4 261.5,141.4 257.7,139.4 
		255.6,141.5 255.1,144.3 252.9,146.8 252.6,149.3 253.1,150.6 255.9,150.1 258,150.7 259,149.8 	"/>
	<polygon class="st0" points="192.3,170.2 194.3,169.8 195.9,169.1 198.6,166.8 199.2,163.2 200.8,157.9 204.2,155.6 204.7,156.2 
		205.8,159.7 204.1,162 203.8,164.2 209,166.1 209.5,167.6 212.6,167.4 214.1,167.8 214.8,168.2 220.2,160.5 221.6,160.1 
		221.9,159.1 221.8,157.6 223.6,155 227.1,154.8 228.4,153.4 229.2,154 231.2,152.3 232.2,152.3 235.9,147.1 237.7,147.3 240,145.6 
		240.7,146.3 244.9,144.1 242.8,140.6 243.4,137 245.2,133.2 246.7,132.5 247.7,133 247.7,135.7 248.9,136.5 251.4,134.5 
		252.6,133.3 253.8,133.8 255.1,132.7 257.9,132.5 258.4,131.6 257.7,130.1 259.6,128.1 262,126.9 265.6,130.9 265.4,132.4 
		267.2,135.1 271.5,135.5 272.4,133.5 271.3,127.8 272.3,126.8 274.3,128.1 276,130.8 278.8,126.4 280.1,126.1 282.2,124 283.3,124 
		285,122.2 286.1,122.2 287,120.6 289.6,120.6 292,118.2 293.1,117.1 293.1,115.8 291.3,114.8 291.3,112.4 287.9,108.1 284.6,111.2 
		283.6,110.5 283.4,108.8 282.1,106.8 281.8,104.5 281.8,102.2 279.5,100.6 279.2,99.6 279.8,98.2 284.1,99.4 284.2,97.4 
		285.7,95.6 284.7,94.7 284.9,92.8 287,91.9 287.5,91.2 287.2,90.6 284.9,91.2 280.8,88.4 280.6,87.6 282.6,85 286.7,78.9 287,78.3 
		287.7,78.3 289,79.9 289.4,80.2 289.5,72.6 290.8,71.9 290.8,68.9 290.5,64.2 292.1,57.5 287.2,53.8 283.4,57 281.4,57.3 
		280.5,58.3 277.2,57.8 275.6,56 274.6,53 274.7,51.8 272.1,50.2 270.6,52.7 267.8,50.9 267.4,50.4 269,46.1 267.7,44.3 266.5,44.3 
		263.6,46.5 261.1,50.1 262.1,50.7 264,50.9 265.4,54.7 264.6,56.2 263.1,58.3 260.5,68.1 261.5,69.8 260.7,71.2 254.6,75.6 
		251.3,75 249.5,74.3 249.2,75.3 246.5,85.9 245.2,87.3 245.9,89.2 247.6,90.6 250.3,89.1 254.7,89.4 256,87.3 258.4,86.8 
		262.8,88.4 268.2,94 268.2,95.2 267,96 260.8,96.3 258.7,98 257,97.8 255.9,99.6 252.9,100.2 251,103.2 250.6,105.3 246.4,108.1 
		243.7,108.4 240.8,112.4 238,114 232.6,112.9 230.8,112 228.7,114.2 227.7,117.9 230.6,122.2 228.7,124.2 226,125.8 222.1,130.8 
		217,133 208.7,133.8 207.4,133.7 197.7,137.8 193.2,140.6 191.9,139.9 191.5,138.6 185.5,138.3 178.7,136.1 176.9,134 166.9,132.9 
		165,133.7 152.9,132.5 152.7,134.3 153.6,137.1 153.1,141.7 156.6,146.8 158.4,148 161.1,145.8 167,145.8 168.5,146.3 169.3,147.6 
		168.7,149.1 165.4,151.7 165.7,153 169.5,155.8 171,155.8 171.5,156.4 171.1,157.6 173.4,159.4 178.8,160.3 181.4,159.6 
		184.7,156.3 188.7,156.6 190.3,159.1 189.4,161.4 189.6,162.7 187.5,164 186.6,165.2 186.9,167.9 190.6,170.6 	"/>
	<polygon class="st0" points="300.8,139.6 304.7,133.8 307.2,131 306.9,128.3 304.2,125.3 303.9,122.8 299.2,116.5 299,117.1 
		298,118.1 296,115.8 293.2,115 293.1,115.8 293.1,117.1 292,118.2 289.6,120.6 287,120.6 286.1,122.2 285,122.2 283.3,124 
		282.2,124 280.1,126.1 278.8,126.4 276,130.8 274.3,128.1 272.3,126.8 271.3,127.8 272.4,133.5 271.5,135.5 270.5,138.4 
		273.2,140.2 274.7,140.4 276.7,143.2 278.2,142.4 280.5,139.6 282.8,135.7 286.7,134.9 289.1,137.3 287.4,141.2 285,144.8 
		287.2,146.3 287,148.1 285.4,149.8 285.7,150.4 288.5,148.9 292.6,143.5 298.9,140 	"/>
	<polygon class="st0" points="285.7,95.6 289.6,94.9 291.3,98 293.7,99.8 295.4,99.1 296.7,99.1 299.2,97.6 301,99.4 302.1,99.6 
		305.2,98.4 307.4,99.6 308.4,102.1 310,102.1 310.8,103.2 312.9,105.5 313.7,105 313.4,102.1 314.6,101.2 316.2,104.5 317.7,105.1 
		319.4,107 320.5,106.8 321,105.9 323.6,103 324.7,103.8 325.6,102.7 326.4,104.2 328.8,105 330.5,105 331.7,105.1 331,103.8 
		330.6,99.9 327.7,95.3 329.3,93.7 330.8,90.9 336.4,90.9 337.4,89.9 337,87.8 338.2,85.7 337.9,84.5 338.3,82.5 338.2,72.4 
		339.8,69.1 338,66.9 338.3,65.7 337.5,64.5 335.4,65.3 332.9,68.1 330.5,69.3 328,72.7 321.9,74.8 319.1,72.7 319.5,71.4 318,69.3 
		317.4,67.1 315,66.9 310.9,64.8 309.3,65.4 307.4,64.5 304.6,65 302.1,64.2 300.6,62 299.2,60.4 298.6,58.8 296.7,56.8 295.6,55 
		292.9,51.4 292.1,49.3 289.1,45.5 288.3,43.5 284.6,41.7 282.1,42.5 280,42 275.2,41.1 268.9,43.3 267.7,44.3 269,46.1 267.4,50.4 
		267.8,50.9 270.6,52.7 272.1,50.2 274.7,51.8 274.6,53 275.6,56 277.2,57.8 280.5,58.3 281.4,57.3 283.4,57 287.2,53.8 292.1,57.5 
		290.5,64.2 290.8,68.9 290.8,71.9 289.5,72.6 289.4,80.2 289,79.9 287.7,78.3 287,78.3 286.7,78.9 282.6,85 280.6,87.6 280.8,88.4 
		284.9,91.2 287.2,90.6 287.5,91.2 287,91.9 284.9,92.8 284.7,94.7 	"/>
	<polygon class="st0" points="203.1,185.3 203.9,185.3 203.9,183 206,182.7 206.6,179.9 205.1,178.8 203.9,177.6 204.4,172.4 
		205.5,171.7 207.5,172.6 208.4,172.2 208.5,169.1 209.5,167.6 209,166.1 203.8,164.2 204.1,162 205.8,159.7 204.7,156.2 
		204.2,155.6 200.8,157.9 199.2,163.2 198.6,166.8 195.9,169.1 194.3,169.8 192.3,170.2 196.7,175.6 197.7,179.7 197.2,181.7 
		200.3,183.3 200.3,184.6 	"/>
</g>
<g id="南海">
	<path class="st2" d="M30.1,254.5c0.5,0.3,1.1,0.5,1.7,0.7c0.2,0,0.4,0.1,0.5,0.1c0.2,0.2,1,0.1,1.1,0.2s0.5,0.1,0.5,0.4
		c0,0.3-0.4,0.5-0.6,0.7s0,0.5,0.1,0.7s0.2,0.3,0.1,0.6s0.3,0.3,0.4,0.4s0.8,0.2,0.8,0.5s0.6,0.6,1,0.7c0.4,0.1,0.8,0.1,1.2,0.1
		c0.2,0,0.3,0.4,0.7,0.5s0.4-0.1,0.7-0.1c0.4,0,0.7-0.2,0.8-0.6c0.1-0.4,0.2-0.8,0.5-0.3s0,0.5,0.8,0.6s0.7,0.2,0.8,0.5
		s0.4,0.3,0.7,0.2s0.4,0,0.5-0.5s0.3-0.6,0.5-0.3s0.2,0.4,0.5,0.5s0.4,0.3,0.2,0.5c-0.3,0.2-0.5,0.5-0.5,0.9c0,0.5,0.1,0.9,0.3,1.4
		c0.2,0.5,0.3,0.9,0.7,1.1c0.4,0.2,0.9,0.1,1.2-0.2c0.3-0.2,0.3-0.6,0.1-0.9c-0.1-0.3-0.3-0.6-0.6-0.7c-0.3-0.2-0.4-0.7,0.1-0.5
		s0.6,0.4,0.7,0.1s0.2-0.3-0.2-0.4s0-0.3,0.3-0.5c0.3-0.3,0.7-0.5,1.1-0.6c0.5-0.1,1.1-0.1,1.6-0.1c0.5,0,0.9-0.2,1.3-0.5
		c0.5-0.3,0.8-0.4,1.1-0.3c0.4,0.2,0.9,0.1,1.3-0.2c0.4-0.4,0.6-0.4,0.9-0.3s0.3-0.1,0.3-0.5s0.2-0.6,0.5-0.2
		c0.1,0.3,0.5,0.4,0.7,0.2c0.1,0,0.2-0.1,0.2-0.2c0.2-0.4,0.3-0.9,0.3-1.4c0-0.7,0.1-1,0.4-0.7c0.3,0.3,0.5,0.6,0.7,0.9
		c0.1,0.2,0.4,0.4,0.6,0.4c0.4,0.1,0.6-0.1,1-0.3c0.3-0.2,0.5-0.5,0.5-0.8c0.1-0.3,0.1-0.5,0.4-0.1c0.3,0.4,0.4,0.3,0.7,0
		s0.5-0.6,1-0.3s0.6,0.2,0.8-0.1s0.3-0.4,0.6-0.1c0.3,0.2,0.8,0.2,1-0.1c0.2-0.2,0.5-0.3,0.8-0.3c0.4-0.2,0.8-0.5,1-0.9
		c0.2-0.5,0.6-0.9,1.1-1.1c0.5-0.1,0.6-0.1,0.8-0.4H30.1V254.5z"/>
	<path class="st3" d="M40.7,266.5c-0.1,0.2-0.3,0.3-0.5,0.4c-0.4,0.3-0.5,0.3-0.5,0.8c-0.1,0.4-0.1,0.8,0,1.2
		c0.1,0.2,0.2,0.4,0.2,0.6c0,0.4,0,0.4,0.4,0.5c0.3,0.1,0.7,0.3,1,0.5c0.3,0.1,0.7,0.3,1.1,0.3c0.4,0.1,0.5,0.1,0.7-0.1
		c0.2-0.2,0.4-0.4,0.7-0.4c0.3-0.1,0.3-0.1,0.5-0.4c0.1-0.2,0.4-0.4,0.6-0.5c0.3-0.1,0.6-0.4,0.7-0.7c0.1-0.4,0.3-0.9,0.5-1.3
		c0.2-0.4,0.4-0.7,0.7-1c0.3-0.3,0.4-0.7,0.3-1.1c-0.1-0.3-0.1-0.5-0.4-0.5c-0.4,0-0.7,0-1.1-0.1c-0.4-0.1-0.9-0.2-1.1,0
		c-0.2,0.3-0.6,0.4-1,0.2c-0.6-0.2-0.7-0.1-0.8,0.1s0,0.2-0.5,0.2s-0.7,0-0.7,0.3s0,0.3-0.3,0.5L40.7,266.5L40.7,266.5z"/>
	<path class="st3" d="M75.1,253c0.1,0.2,0,0.5-0.1,0.7c-0.2,0.4-0.4,0.8-0.1,1.2s0.4,0.4,0.5,0.9c0,0.5,0.2,0.7,0.5,0.9
		c0.4,0.2,0.7,0.6,0.8,1c0,0.3,0.2,0.6,0.5,0.7c0.2,0.1,0.2-0.1,0.2-0.5c0-0.7,0.2-1.3,0.5-1.9c0.4-0.5,0.8-1.1,1-1.7
		c0.2-0.4,0.3-0.9,0.3-1.3L75.1,253z"/>
	<path class="st4" d="M73.1,253.2c0,0-0.5,0.2-0.2,0.4s1,0,0.7-0.1L73.1,253.2L73.1,253.2z"/>
	<path class="st4" d="M79.3,258.1c0,0-0.2,0.3,0,0.3s0.5-0.3,0.3-0.3H79.3z"/>
	<path class="st4" d="M50.8,317.7c0,0-0.2,0.3,0,0.3s0.5-0.3,0.3-0.3H50.8z"/>
	<path class="st4" d="M54.1,309.4c0,0-0.2,0.3,0,0.3s0.5-0.3,0.3-0.3H54.1z"/>
	<path class="st4" d="M52.3,301.4c0,0-0.2,0.3,0,0.3s0.5-0.3,0.3-0.3H52.3z"/>
	<path class="st4" d="M57.6,298.4c0,0-0.2,0.2,0,0.2s0.5-0.2,0.3-0.2H57.6z"/>
	<path class="st4" d="M57.7,293c0,0-0.2,0.2,0,0.2s0.5-0.2,0.3-0.2H57.7z"/>
	<path class="st4" d="M64.2,294.8c0,0-0.2,0.2,0,0.2s0.5-0.2,0.3-0.2H64.2z"/>
	<path class="st4" d="M60.1,294.1c0,0-0.2,0.3,0,0.3s0.5-0.3,0.3-0.3H60.1z"/>
	<path class="st4" d="M53.1,299c0,0-0.2,0.3,0,0.3s0.5-0.3,0.3-0.3H53.1z"/>
	<path class="st4" d="M51.8,311.8c0,0-0.2,0.3,0,0.3s0.5-0.3,0.3-0.3H51.8z"/>
	<path class="st4" d="M45.3,303.8c0,0-0.2,0.2,0,0.2s0.5-0.2,0.3-0.2H45.3z"/>
	<path class="st4" d="M68.1,295.6c0,0-0.2,0.3,0,0.3s0.5-0.3,0.3-0.3H68.1z"/>
	<path class="st4" d="M58,295.5c0,0-0.2,0.3,0,0.3s0.5-0.3,0.3-0.3H58z"/>
	<path class="st4" d="M58,296.7c0,0-0.2,0.3,0,0.3s0.5-0.3,0.3-0.3H58z"/>
	<path class="st4" d="M57.2,301.5c0,0-0.2,0.3,0,0.3s0.5-0.3,0.3-0.3H57.2z"/>
	<path class="st4" d="M68.6,280.2c0,0-0.2,0.2,0,0.2s0.5-0.2,0.3-0.2H68.6z"/>
	<path class="st4" d="M51,275c0,0-0.2,0.3,0,0.3s0.5-0.3,0.3-0.3H51z"/>
	<path class="st4" d="M52.5,276c0,0-0.2,0.2,0,0.2s0.5-0.2,0.3-0.2H52.5z"/>
	<path class="st4" d="M49.1,276.4c0,0-0.2,0.2,0,0.2s0.5-0.2,0.3-0.2H49.1z"/>
	<path class="st4" d="M47.6,278.9c0,0-0.2,0.3,0,0.3s0.5-0.3,0.3-0.3H47.6z"/>
	<path class="st4" d="M58.8,277.5c0,0-0.2,0.3,0,0.3s0.5-0.3,0.3-0.3H58.8z"/>
	<path class="st4" d="M56.3,278.8c0,0-0.2,0.3,0,0.3s0.5-0.3,0.3-0.3H56.3z"/>
	<path class="st4" d="M58.9,278.8c0,0-0.2,0.2,0,0.2s0.5-0.2,0.3-0.2H58.9z"/>
	<path class="st4" d="M65,262.8c0,0-0.2,0.3,0,0.3s0.5-0.3,0.3-0.3H65z"/>
	<path class="st4" d="M73.1,253.2c0,0-0.5,0.2-0.2,0.4s1,0,0.7-0.1L73.1,253.2L73.1,253.2z"/>
	<path class="st4" d="M79.3,258.1c0,0-0.2,0.3,0,0.3s0.5-0.3,0.3-0.3H79.3z"/>
	<path class="st4" d="M49.5,278c0,0-0.2,0.3,0,0.3s0.5-0.3,0.3-0.3H49.5z"/>
	<path class="st4" d="M42.6,305.8c0,0-0.2,0.3,0,0.3s0.5-0.3,0.3-0.3H42.6z"/>
	<path class="st4" d="M57.2,305.4c0,0-0.2,0.2,0,0.2s0.5-0.2,0.3-0.2H57.2z"/>
	<path class="st4" d="M65.3,298.6c0,0-0.2,0.2,0,0.2s0.5-0.2,0.3-0.2H65.3z"/>
	<path class="st4" d="M49,306c0,0-0.2,0.2,0,0.2s0.5-0.2,0.3-0.2H49z"/>
	<path class="st4" d="M57.2,294.5c0,0-0.2,0.2,0,0.2s0.5-0.2,0.3-0.2H57.2z"/>
	<path class="st4" d="M65.4,292.9c0,0-0.2,0.2,0,0.2s0.5-0.2,0.3-0.2H65.4z"/>
	<path class="st4" d="M62.6,295.3c0,0-0.2,0.2,0,0.2s0.5-0.2,0.3-0.2H62.6z"/>
	<path class="st4" d="M48.5,274.5c0,0-0.2,0.2,0,0.2s0.5-0.2,0.3-0.2H48.5z"/>
	<path class="st4" d="M79.2,256.1c0,0-0.2,0.2,0,0.2s0.5-0.2,0.3-0.2H79.2z"/>
	<path class="st4" d="M72.9,254.3c0,0-0.2,0.3,0,0.3s0.5-0.3,0.3-0.3H72.9z"/>
	<path class="st4" d="M62.5,261.8c-0.4-0.1-0.3,0.6,0,0.5C62.6,262.2,62.8,261.9,62.5,261.8z"/>
	<path class="st4" d="M62.9,261c-0.4-0.1-0.3,0.6,0,0.5S63.3,261.2,62.9,261z"/>
	<polygon class="st3" points="34.6,253 80.1,253 80.1,328 30.1,328 30.1,253 34.6,253 	"/>
</g>
</svg>
